<?xml version="1.0" encoding="iso-8859-1"?>
<!-- Generator: Adobe Illustrator 19.0.0, SVG Export Plug-In . SVG Version: 6.00 Build 0)  -->
<svg version="1.1" id="Layer_1" xmlns="http://www.w3.org/2000/svg" xmlns:xlink="http://www.w3.org/1999/xlink" x="0px" y="0px"
	 viewBox="0 0 491.518 491.518" style="enable-background:new 0 0 491.518 491.518;" xml:space="preserve">
<g>
	<g>
		<path d="M259.885,0c-4.246,0-7.68,3.435-7.68,7.68v200.151c0,4.245,3.434,7.68,7.68,7.68h200.151c4.245,0,7.68-3.435,7.68-7.68
			C467.716,93.232,374.483,0,259.885,0z"/>
	</g>
</g>
<g>
	<g>
		<path d="M230.834,45.277c-2.666,0-5.333,0.082-7.751,0.165c-1.245,0-2.497,0.082-3.555,0.165
			C109.326,51.51,23.001,142.619,23.001,253.026c0,83.347,49.567,158.407,126.281,191.227c0.968,0.412,1.995,0.622,3.023,0.622
			c0.971,0,1.942-0.187,2.861-0.555c1.89-0.758,3.405-2.235,4.204-4.11l78.528-184.169c0.405-0.953,0.615-1.981,0.615-3.015V52.957
			C238.513,48.712,235.074,45.277,230.834,45.277z"/>
	</g>
</g>
<g>
	<g>
		<path d="M409.681,417.418c-0.113-2.041-1.027-3.953-2.551-5.318L258.572,278.076c-1.846-1.665-4.373-2.332-6.799-1.8
			c-2.422,0.533-4.44,2.205-5.411,4.485l-78.116,183.277c-1.046,1.815-1.309,3.99-0.705,6.015c0.653,2.197,2.25,3.982,4.361,4.882
			c25.92,11.002,53.351,16.583,81.525,16.583c58.65,0,114.877-24.982,154.274-68.542
			C409.074,421.46,409.786,419.458,409.681,417.418z"/>
	</g>
</g>
<g>
	<g>
		<path d="M460.839,238.079H260.694c-3.18,0-6.03,1.958-7.17,4.927c-1.14,2.962-0.333,6.322,2.025,8.453l140.894,127.102
			l7.665,6.945c1.417,1.283,3.255,1.987,5.159,1.987c0.127,0,0.255,0,0.383-0.008c2.04-0.105,3.952-1.012,5.317-2.528
			c34.53-38.272,53.55-87.712,53.55-139.199C468.518,241.514,465.083,238.079,460.839,238.079z"/>
	</g>
</g>
<g>
</g>
<g>
</g>
<g>
</g>
<g>
</g>
<g>
</g>
<g>
</g>
<g>
</g>
<g>
</g>
<g>
</g>
<g>
</g>
<g>
</g>
<g>
</g>
<g>
</g>
<g>
</g>
<g>
</g>
</svg>
