<?xml version="1.0" encoding="iso-8859-1"?>
<!-- Generator: Adobe Illustrator 19.0.0, SVG Export Plug-In . SVG Version: 6.00 Build 0)  -->
<svg version="1.1" id="Layer_1" xmlns="http://www.w3.org/2000/svg" xmlns:xlink="http://www.w3.org/1999/xlink" x="0px" y="0px"
	 viewBox="0 0 512.099 512.099" style="enable-background:new 0 0 512.099 512.099;" xml:space="preserve">
<g transform="translate(-1)">
	<g>
		<g>
			<path d="M237.797,216.866c4.16,4.16,9.621,6.251,15.083,6.251c5.461,0,10.923-2.091,15.083-6.251L399.355,85.474
				c4.203-4.181,6.443-9.92,6.229-15.808c-0.192-5.909-2.837-11.456-7.296-15.36c-82.859-72.32-207.915-72.32-290.816,0
				c-4.459,3.883-7.104,9.451-7.296,15.36c-0.213,5.888,2.048,11.627,6.229,15.808L237.797,216.866z"/>
			<path d="M458.755,114.76c-3.904-4.459-9.451-7.104-15.36-7.296c-5.952-0.256-11.648,2.048-15.808,6.229L296.558,244.723
				c-8.32,8.32-8.32,21.824,0,30.165L427.971,406.28c3.989,4.011,9.429,6.251,15.083,6.251h0.725
				c5.888-0.213,11.456-2.859,15.36-7.317C531.225,322.547,531.075,197.661,458.755,114.76z"/>
			<path d="M78.171,113.698c-4.437-4.416-10.603-6.805-16.789-6.187c-6.229,0.512-11.947,3.712-15.595,8.789
				c-69.995,96.981-56.768,231.381,31.424,319.552c50.304,50.283,115.605,76.181,180.437,76.181
				c48.853,0,97.429-14.699,139.115-44.757c5.077-3.669,8.277-9.365,8.789-15.595c0.491-6.229-1.771-12.373-6.187-16.789
				L78.171,113.698z"/>
		</g>
	</g>
</g>
<g>
</g>
<g>
</g>
<g>
</g>
<g>
</g>
<g>
</g>
<g>
</g>
<g>
</g>
<g>
</g>
<g>
</g>
<g>
</g>
<g>
</g>
<g>
</g>
<g>
</g>
<g>
</g>
<g>
</g>
</svg>
